<svg width="156" height="200" viewBox="0 0 156 200" fill="none" xmlns="http://www.w3.org/2000/svg">
<g clip-path="url(#clip0)">
<path d="M156 129.084L128.068 108.938C128.068 108.938 112.068 82.0757 109.356 64.884C106.644 47.6924 94.4404 17.0697 94.4404 17.0697V0.952448C94.4404 0.952448 80.3387 -4.41995 79.2539 10.3542C78.1692 25.1283 82.237 44.2003 82.237 44.2003C82.237 44.2003 86.3048 68.3761 77.0844 74.5544L43.4572 129.084C43.4572 129.084 75.7285 158.364 100.949 162.125L156 200V129.084Z" fill="#FFB8B8"/>
<path d="M10.779 51.856H9.85826C1.56236 51.856 -3.10088 61.5574 2.35025 67.7517C4.10474 69.7454 6.77147 71.1257 10.779 71.1966V51.856Z" fill="#FFB8B8"/>
<path d="M10.779 71.1966H9.85826C1.56236 71.1966 -3.10088 80.898 2.35025 87.0924C4.10474 89.0861 6.77147 90.4664 10.779 90.5373V71.1966Z" fill="#FFB8B8"/>
<path d="M10.779 90.5373H9.85826C1.56236 90.5373 -3.10088 100.239 2.35025 106.433C4.10474 108.427 6.77147 109.807 10.779 109.878V90.5373Z" fill="#FFB8B8"/>
<path d="M10.779 109.878H9.85826C1.56236 109.878 -3.10088 119.579 2.35025 125.774C4.10474 127.767 6.77147 129.148 10.779 129.219V109.878Z" fill="#FFB8B8"/>
<path d="M82.7794 47.2381H81.9723V25.3379C81.9723 23.6733 81.6413 22.0251 80.9982 20.4872C80.3551 18.9494 79.4126 17.5521 78.2243 16.3751C77.036 15.1981 75.6254 14.2644 74.0728 13.6274C72.5203 12.9905 70.8563 12.6626 69.1759 12.6626H22.3339C20.6534 12.6626 18.9895 12.9905 17.4369 13.6274C15.8844 14.2644 14.4737 15.1981 13.2855 16.3751C12.0972 17.5521 11.1546 18.9494 10.5115 20.4872C9.86847 22.0251 9.53748 23.6733 9.53748 25.3379V145.484C9.53748 147.149 9.86847 148.797 10.5115 150.335C11.1546 151.872 12.0972 153.27 13.2855 154.447C14.4737 155.624 15.8844 156.557 17.4369 157.194C18.9895 157.831 20.6534 158.159 22.3339 158.159H69.1759C70.8563 158.159 72.5203 157.831 74.0728 157.194C75.6254 156.557 77.036 155.624 78.2243 154.447C79.4126 153.27 80.3551 151.872 80.9982 150.335C81.6413 148.797 81.9723 147.149 81.9723 145.484V62.827H82.7794V47.2381Z" fill="#3F3D56"/>
<path d="M79.2485 25.4264V145.395C79.2464 146.798 78.9306 148.183 78.3239 149.451C77.7172 150.719 76.8345 151.838 75.7393 152.728C75.4971 152.925 75.2445 153.109 74.9827 153.279C73.416 154.313 71.5747 154.864 69.6918 154.861H22.6245C21.8615 154.862 21.1012 154.772 20.3601 154.592C18.2802 154.09 16.4308 152.91 15.1085 151.243C13.7862 149.575 13.0676 147.515 13.0679 145.395V25.4264C13.0681 22.9159 14.075 20.5083 15.8672 18.7331C17.6594 16.9579 20.09 15.9605 22.6245 15.9603H28.3357C28.0545 16.643 27.9472 17.3838 28.0231 18.1174C28.0991 18.8509 28.3561 19.5547 28.7714 20.1667C29.1867 20.7787 29.7475 21.2801 30.4046 21.6268C31.0616 21.9735 31.7947 22.1547 32.5391 22.1546H59.3732C60.1174 22.1538 60.85 21.972 61.5066 21.6252C62.1633 21.2783 62.7239 20.7771 63.1392 20.1654C63.5546 19.5537 63.8119 18.8504 63.8886 18.1172C63.9654 17.384 63.8591 16.6433 63.5793 15.9603H69.6918C72.2264 15.9605 74.657 16.9579 76.4492 18.7331C78.2413 20.5083 79.2483 22.9159 79.2485 25.4264Z" fill="#6C63FF"/>
<path d="M36.2808 106.365C36.2808 106.365 40.901 119.078 37.3075 126.197C33.714 133.316 42.9545 141.452 42.9545 141.452C42.9545 141.452 67.0822 129.248 64.0021 123.146C60.922 117.044 55.7884 108.908 56.8151 103.823L36.2808 106.365Z" fill="#FFB8B8"/>
<path d="M45.2645 111.196C54.3371 111.196 61.6919 103.911 61.6919 94.9243C61.6919 85.9376 54.3371 78.6524 45.2645 78.6524C36.1919 78.6524 28.8371 85.9376 28.8371 94.9243C28.8371 103.911 36.1919 111.196 45.2645 111.196Z" fill="#FFB8B8"/>
<path d="M77.2037 152.022C76.7719 152.568 76.2808 153.065 75.7393 153.505C75.4971 153.702 75.2445 153.885 74.9827 154.056C73.4668 155.055 71.6498 155.369 69.6918 155.369H28.1188L28.8374 135.604L33.4585 125.434C34.4959 126.24 35.6061 126.95 36.7751 127.554C37.0517 127.701 37.3446 127.849 37.651 127.994C41.9792 130.065 49.0545 131.886 55.9128 126.815C58.0715 125.219 60.2084 122.939 62.2342 119.769L75.0397 126.96L75.7122 134.75L77.2037 152.022Z" fill="white"/>
<path d="M38.6327 117.824L37.99 124.478L37.651 127.994L37.1439 133.23L34.9771 155.638H22.6245C21.8615 155.639 21.1012 155.549 20.3601 155.369L15.4896 133.06L15.6306 132.969L38.6327 117.824Z" fill="#2F2E41"/>
<path d="M79.2485 122.396V146.172C79.2464 147.575 78.9306 148.96 78.3239 150.228C77.7172 151.496 76.8345 152.615 75.7393 153.505C75.4971 153.702 75.2445 153.885 74.9827 154.056C73.416 155.09 71.5747 155.641 69.6918 155.638H53.163C53.5236 148.125 54.1609 140.791 54.9067 134.403C55.2267 131.682 55.5657 129.133 55.9128 126.815C57.0301 119.342 58.2287 114.268 59.0884 113.583L64.7725 117.298L79.2485 122.396Z" fill="#2F2E41"/>
<path d="M27.2971 151.367L26.7059 155.638H22.6245C21.8615 155.639 21.1012 155.549 20.3601 155.369C18.2802 154.867 16.4308 153.687 15.1085 152.019C13.7862 150.352 13.0676 148.292 13.0679 146.172V145.312L14.977 133.06L15.6306 132.969L18.5703 132.553L27.2971 151.367Z" fill="#2F2E41"/>
<path d="M79.2485 125.496V146.172C79.2464 147.575 78.9306 148.96 78.3239 150.228C77.7171 151.496 76.8345 152.615 75.7393 153.505C75.4971 153.702 75.2445 153.885 74.9827 154.056L72.4715 143.23L75.7122 134.75L79.2485 125.496Z" fill="#2F2E41"/>
<path d="M60.9298 80.2072C58.4457 76.2115 54.5573 73.2671 50.0131 71.9407L46.6754 74.5855L47.973 71.5006C46.8818 71.3357 45.7773 71.2725 44.6742 71.3118L41.6712 75.1363L42.9141 71.4428C37.7251 72.098 32.7919 74.8977 29.8016 79.1686C25.9795 84.6276 25.3345 92.2193 29.0938 97.721C30.1257 94.5797 31.3782 91.6322 32.4102 88.4908C32.6483 88.5917 33.5507 88.5854 34.8553 88.5026L36.1109 85.6008L36.4616 88.3799C40.353 88.0441 46.125 87.3068 49.8143 86.6312L49.4556 84.4993L51.6018 86.2709C52.7322 86.0132 53.4032 85.7795 53.3478 85.6008C56.0915 89.9823 58.8102 92.7808 61.5539 97.1621C62.5954 90.982 64.4341 85.8449 60.9298 80.2072Z" fill="#2F2E41"/>
<path d="M60.0201 96.6161C60.6343 96.6161 61.1322 95.6298 61.1322 94.4131C61.1322 93.1964 60.6343 92.21 60.0201 92.21C59.406 92.21 58.9081 93.1964 58.9081 94.4131C58.9081 95.6298 59.406 96.6161 60.0201 96.6161Z" fill="#FFB8B8"/>
<path d="M96.2031 151.917C107.511 151.917 116.678 131.592 116.678 106.52C116.678 81.4482 107.511 61.1234 96.2031 61.1234C84.8953 61.1234 75.7285 81.4482 75.7285 106.52C75.7285 131.592 84.8953 151.917 96.2031 151.917Z" fill="#FFB8B8"/>
<path opacity="0.2" d="M22.5651 49.8413C21.4923 49.8413 20.4437 49.5262 19.5518 48.9359C18.6598 48.3456 17.9647 47.5065 17.5542 46.5248C17.1437 45.5432 17.0362 44.463 17.2455 43.4208C17.4548 42.3787 17.9714 41.4214 18.7299 40.6701C19.4884 39.9187 20.4548 39.407 21.5069 39.1997C22.559 38.9924 23.6496 39.0988 24.6406 39.5055C25.6317 39.9121 26.4788 40.6007 27.0747 41.4842C27.6707 42.3677 27.9888 43.4064 27.9888 44.4689C27.9872 45.8933 27.4152 47.2588 26.3984 48.266C25.3816 49.2731 24.003 49.8397 22.5651 49.8413ZM22.5651 39.6338C21.5996 39.6338 20.6558 39.9173 19.8531 40.4486C19.0504 40.9799 18.4247 41.7351 18.0552 42.6186C17.6858 43.5021 17.5891 44.4743 17.7775 45.4122C17.9658 46.3501 18.4307 47.2117 19.1134 47.8879C19.7961 48.5641 20.6658 49.0246 21.6127 49.2112C22.5596 49.3977 23.5411 49.302 24.4331 48.936C25.325 48.5701 26.0874 47.9503 26.6238 47.1552C27.1602 46.3601 27.4464 45.4252 27.4464 44.4689C27.445 43.187 26.9302 41.958 26.0151 41.0515C25.1 40.1451 23.8592 39.6352 22.5651 39.6338Z" fill="black"/>
<path opacity="0.2" d="M20.3956 43.9317C20.8449 43.9317 21.2092 43.5709 21.2092 43.1258C21.2092 42.6808 20.8449 42.32 20.3956 42.32C19.9463 42.32 19.582 42.6808 19.582 43.1258C19.582 43.5709 19.9463 43.9317 20.3956 43.9317Z" fill="black"/>
<path opacity="0.2" d="M24.4634 43.9317C24.9127 43.9317 25.277 43.5709 25.277 43.1258C25.277 42.6808 24.9127 42.32 24.4634 42.32C24.0141 42.32 23.6498 42.6808 23.6498 43.1258C23.6498 43.5709 24.0141 43.9317 24.4634 43.9317Z" fill="black"/>
<path opacity="0.2" d="M24.4634 46.3493H20.3956C20.3237 46.3493 20.2547 46.321 20.2038 46.2706C20.153 46.2202 20.1244 46.1519 20.1244 46.0806C20.1244 46.0094 20.153 45.9411 20.2038 45.8907C20.2547 45.8403 20.3237 45.812 20.3956 45.812H24.4634C24.5353 45.812 24.6043 45.8403 24.6552 45.8907C24.706 45.9411 24.7346 46.0094 24.7346 46.0806C24.7346 46.1519 24.706 46.2202 24.6552 46.2706C24.6043 46.321 24.5353 46.3493 24.4634 46.3493Z" fill="black"/>
<path opacity="0.2" d="M69.7517 49.8413C68.679 49.8413 67.6304 49.5262 66.7384 48.9359C65.8465 48.3456 65.1513 47.5065 64.7408 46.5248C64.3303 45.5432 64.2229 44.463 64.4322 43.4208C64.6414 42.3787 65.158 41.4214 65.9165 40.6701C66.675 39.9187 67.6415 39.407 68.6936 39.1997C69.7457 38.9924 70.8362 39.0988 71.8273 39.5055C72.8183 39.9121 73.6654 40.6007 74.2614 41.4842C74.8574 42.3677 75.1754 43.4064 75.1754 44.4689C75.1738 45.8933 74.6019 47.2588 73.5851 48.266C72.5683 49.2732 71.1897 49.8397 69.7517 49.8413ZM69.7517 39.6338C68.7863 39.6338 67.8425 39.9173 67.0397 40.4486C66.237 40.9799 65.6113 41.7351 65.2419 42.6186C64.8724 43.5021 64.7758 44.4743 64.9641 45.4122C65.1525 46.3501 65.6174 47.2117 66.3 47.8879C66.9827 48.5641 67.8525 49.0246 68.7994 49.2112C69.7463 49.3977 70.7278 49.302 71.6197 48.936C72.5117 48.5701 73.274 47.9503 73.8104 47.1552C74.3468 46.3601 74.6331 45.4252 74.6331 44.4689C74.6316 43.187 74.1168 41.958 73.2017 41.0516C72.2866 40.1451 71.0459 39.6352 69.7517 39.6338Z" fill="black"/>
<path opacity="0.2" d="M67.5822 43.9317C68.0316 43.9317 68.3958 43.5709 68.3958 43.1258C68.3958 42.6808 68.0316 42.32 67.5822 42.32C67.1329 42.32 66.7687 42.6808 66.7687 43.1258C66.7687 43.5709 67.1329 43.9317 67.5822 43.9317Z" fill="black"/>
<path opacity="0.2" d="M71.65 43.9317C72.0993 43.9317 72.4636 43.5709 72.4636 43.1258C72.4636 42.6808 72.0993 42.32 71.65 42.32C71.2007 42.32 70.8364 42.6808 70.8364 43.1258C70.8364 43.5709 71.2007 43.9317 71.65 43.9317Z" fill="black"/>
<path opacity="0.2" d="M71.6498 46.8865C71.6024 46.8865 71.5558 46.8741 71.5147 46.8507C70.9469 46.4941 70.2884 46.3047 69.6161 46.3047C68.9438 46.3047 68.2853 46.4941 67.7176 46.8507C67.6867 46.8684 67.6526 46.8799 67.6172 46.8845C67.5819 46.8891 67.5459 46.8868 67.5115 46.8776C67.477 46.8685 67.4447 46.8527 67.4165 46.8312C67.3882 46.8097 67.3645 46.7828 67.3467 46.7522C67.3289 46.7216 67.3173 46.6878 67.3127 46.6528C67.3081 46.6177 67.3106 46.5822 67.3199 46.548C67.3292 46.5139 67.3452 46.482 67.367 46.454C67.3888 46.4261 67.4159 46.4026 67.4469 46.3851C68.0976 45.983 68.8492 45.7699 69.6161 45.7699C70.3831 45.7699 71.1346 45.983 71.7853 46.3851C71.8371 46.4146 71.8776 46.4602 71.9006 46.5149C71.9235 46.5696 71.9275 46.6302 71.9121 46.6874C71.8966 46.7446 71.8625 46.7951 71.8151 46.8311C71.7676 46.8671 71.7095 46.8866 71.6498 46.8865Z" fill="black"/>
<path d="M46.4296 55.3765C44.2516 55.3765 42.1226 54.7368 40.3117 53.5383C38.5008 52.3397 37.0894 50.6362 36.256 48.6431C35.4225 46.65 35.2044 44.4568 35.6293 42.3409C36.0542 40.2251 37.103 38.2815 38.643 36.7561C40.1831 35.2306 42.1452 34.1918 44.2813 33.7709C46.4174 33.35 48.6315 33.566 50.6436 34.3916C52.6558 35.2172 54.3756 36.6152 55.5856 38.409C56.7956 40.2027 57.4414 42.3116 57.4414 44.4689C57.4381 47.3608 56.2769 50.1333 54.2125 52.1781C52.1481 54.223 49.3491 55.3732 46.4296 55.3765ZM46.4296 34.6521C44.4694 34.6521 42.5533 35.2278 40.9235 36.3065C39.2937 37.3852 38.0234 38.9184 37.2733 40.7122C36.5232 42.506 36.3269 44.4798 36.7093 46.3841C37.0918 48.2884 38.0356 50.0376 39.4217 51.4105C40.8077 52.7834 42.5736 53.7183 44.4961 54.0971C46.4186 54.4759 48.4113 54.2815 50.2222 53.5385C52.0332 52.7955 53.581 51.5372 54.67 49.9229C55.759 48.3085 56.3403 46.4105 56.3403 44.4689C56.3373 41.8662 55.2922 39.371 53.4342 37.5306C51.5763 35.6902 49.0572 34.655 46.4296 34.6521V34.6521Z" fill="white"/>
<path d="M42.0248 43.3782C42.9371 43.3782 43.6766 42.6456 43.6766 41.742C43.6766 40.8384 42.9371 40.1059 42.0248 40.1059C41.1126 40.1059 40.373 40.8384 40.373 41.742C40.373 42.6456 41.1126 43.3782 42.0248 43.3782Z" fill="white"/>
<path d="M50.2837 43.3782C51.196 43.3782 51.9355 42.6456 51.9355 41.742C51.9355 40.8384 51.196 40.1059 50.2837 40.1059C49.3715 40.1059 48.632 40.8384 48.632 41.742C48.632 42.6456 49.3715 43.3782 50.2837 43.3782Z" fill="white"/>
<path d="M46.4355 49.7941C44.9544 49.7941 43.3844 49.2623 41.7253 48.1987C41.603 48.1199 41.5173 47.9963 41.487 47.855C41.4566 47.7136 41.4841 47.5661 41.5635 47.4449C41.6429 47.3237 41.7676 47.2386 41.9102 47.2084C42.0529 47.1781 42.2018 47.2052 42.3243 47.2837C45.2426 49.1576 47.7292 49.1712 49.9278 47.3252C50.0392 47.2319 50.1834 47.1862 50.3288 47.1982C50.4742 47.2102 50.6088 47.2788 50.7031 47.389C50.7975 47.4993 50.8438 47.6421 50.8319 47.7861C50.82 47.9301 50.7508 48.0636 50.6397 48.1572C49.3406 49.2485 47.9354 49.7941 46.4355 49.7941Z" fill="white"/>
<path d="M64.5991 62.4664H57.4414V61.3758H63.4979V55.3766H64.5991V62.4664Z" fill="white"/>
<path d="M29.3612 33.5612H28.26V26.4713H35.4177V27.562H29.3612V33.5612Z" fill="white"/>
</g>
<defs>
<clipPath id="clip0">
<rect width="156" height="200" fill="white"/>
</clipPath>
</defs>
</svg>
