<svg width="218" height="236" viewBox="0 0 218 236" fill="none" xmlns="http://www.w3.org/2000/svg">
<g clip-path="url(#clip0)">
<path d="M94.3308 75.7188C94.1674 74.081 93.6359 72.5016 92.7763 71.0996C91.9166 69.6975 90.7511 68.5093 89.3676 67.6243C87.984 66.7394 86.4184 66.1806 84.7885 65.9902C83.1587 65.7998 81.507 65.9826 79.9577 66.5249L80.7445 66.6055C77.2163 67.3134 74.081 69.3226 71.9576 72.2364C70.9204 73.6929 70.2075 75.3561 69.8672 77.1132C69.5269 78.8703 69.5671 80.6803 69.9851 82.4205C70.8767 85.8764 73.5087 88.8746 76.8776 90.025C78.7509 90.6647 80.7617 90.7428 82.7396 90.8103C84.0235 90.8541 85.3309 90.8932 86.5686 90.5482C88.1608 90.0534 89.5603 89.0747 90.5739 87.7474C91.5778 86.4249 92.3766 84.9578 92.9431 83.3957C93.9024 80.9526 94.5914 78.3315 94.3308 75.7188Z" fill="#2F2E41"/>
<path d="M122.303 234.943C119.506 224.39 125.717 214.105 132.975 206.985C136.843 203.19 141.151 199.891 145.352 196.484C149.383 193.25 153.222 189.782 156.848 186.098C163.851 178.908 169.96 170.691 174.006 161.454C177.853 152.671 179.671 143.102 178.77 133.518C177.916 124.429 174.668 115.488 168.693 108.514C167.949 107.645 167.166 106.812 166.344 106.015C165.903 105.586 165.228 106.262 165.669 106.692C172.341 113.191 176.224 121.997 177.539 131.159C178.894 140.607 177.498 150.24 173.975 159.073C170.223 168.483 164.257 176.88 157.338 184.208C153.853 187.874 150.146 191.322 146.238 194.53C142.065 197.979 137.728 201.237 133.754 204.923C126.43 211.715 119.847 221.058 120.751 231.575C120.857 232.799 121.068 234.011 121.383 235.197C121.42 235.316 121.501 235.415 121.61 235.475C121.718 235.534 121.846 235.549 121.965 235.516C122.085 235.483 122.186 235.405 122.249 235.298C122.312 235.191 122.331 235.064 122.303 234.943V234.943Z" fill="#F0F0F0"/>
<path d="M151.594 174.868C147.187 167.287 143.816 159.147 141.572 150.665C139.321 142.185 138.196 133.444 138.224 124.669C138.256 115.894 139.318 106.9 142.03 98.5322C144.604 90.5905 149.215 83.0168 156.536 78.6831C160.27 76.4861 164.532 75.357 168.86 75.4184C173.432 75.4618 177.94 76.6688 182.059 78.6233C186.093 80.5375 189.782 83.1171 193.19 85.9928C196.439 88.73 199.471 91.7164 202.258 94.9252C207.78 101.296 212.292 108.672 214.812 116.76C217.439 125.188 217.899 134.407 215.462 142.938C213.121 151.132 207.992 158.115 201.696 163.725C194.892 169.787 186.832 174.193 178.704 178.192C176.67 179.192 174.625 180.17 172.579 181.148C172.025 181.413 172.509 182.238 173.061 181.975C181.631 177.877 190.286 173.744 197.925 168.024C204.666 162.977 210.675 156.641 214.249 148.923C218.029 140.761 218.804 131.481 217.237 122.675C215.706 114.069 211.865 106.014 206.724 98.9987C204.169 95.5282 201.33 92.2779 198.236 89.2815C195.061 86.137 191.595 83.3032 187.884 80.8186C180.278 75.8314 170.766 72.8197 161.752 75.3886C153.738 77.6725 147.57 84.1135 143.9 91.4131C141.846 95.4987 140.461 99.8925 139.476 104.351C138.515 108.745 137.869 113.202 137.543 117.688C136.233 135.59 139.731 153.517 147.672 169.603C148.64 171.553 149.672 173.469 150.77 175.351C150.837 175.456 150.941 175.531 151.061 175.56C151.181 175.59 151.308 175.571 151.415 175.508C151.522 175.446 151.6 175.344 151.634 175.224C151.667 175.105 151.653 174.977 151.594 174.868Z" fill="#F0F0F0"/>
<path d="M145.552 165.617C141.144 158.036 137.773 149.896 135.53 141.414C133.279 132.934 132.153 124.193 132.182 115.418C132.214 106.643 133.276 97.649 135.988 89.2812C138.562 81.3395 143.173 73.7659 150.494 69.4321C154.228 67.2352 158.49 66.1061 162.818 66.1674C167.39 66.2108 171.898 67.4179 176.017 69.3723C180.051 71.2865 183.74 73.8662 187.148 76.7418C190.396 79.479 193.428 82.4655 196.216 85.6742C201.738 92.0447 206.25 99.4208 208.77 107.509C211.396 115.937 211.857 125.157 209.419 133.687C207.078 141.881 201.95 148.864 195.654 154.474C188.849 160.536 180.789 164.942 172.662 168.941C170.628 169.941 168.582 170.919 166.537 171.897C165.983 172.162 166.467 172.987 167.019 172.724C175.589 168.626 184.243 164.493 191.883 158.773C198.624 153.726 204.632 147.39 208.207 139.672C211.987 131.51 212.762 122.23 211.195 113.424C209.664 104.818 205.822 96.7628 200.681 89.7478C198.127 86.2773 195.287 83.0269 192.193 80.0305C189.019 76.886 185.553 74.0522 181.842 71.5677C174.236 66.5804 164.724 63.5687 155.709 66.1377C147.695 68.4215 141.528 74.8625 137.858 82.1621C135.803 86.2477 134.419 90.6415 133.434 95.1001C132.473 99.4939 131.827 103.951 131.5 108.437C130.191 126.339 133.689 144.266 141.63 160.352C142.597 162.302 143.63 164.218 144.728 166.1C144.794 166.205 144.898 166.28 145.019 166.309C145.139 166.339 145.266 166.32 145.373 166.257C145.48 166.195 145.558 166.093 145.591 165.973C145.625 165.854 145.611 165.726 145.552 165.617Z" fill="#F0F0F0"/>
<path d="M58.7027 147.682C58.3662 147.206 58.1378 146.662 58.0337 146.088C57.9296 145.514 57.9523 144.924 58.1001 144.359C58.2479 143.795 58.5173 143.27 58.8893 142.821C59.2613 142.372 59.7269 142.011 60.2532 141.762L71.2806 107.127L78.9605 111.129L65.7061 143.916C66.064 144.83 66.075 145.845 65.737 146.767C65.399 147.689 64.7355 148.455 63.8722 148.919C63.009 149.384 62.0059 149.514 61.0532 149.286C60.1004 149.058 59.2641 148.488 58.7027 147.682H58.7027Z" fill="#FFB6B6"/>
<path d="M67.7118 111.916C67.6062 111.682 67.5523 111.427 67.5537 111.17C67.5552 110.913 67.6119 110.659 67.7201 110.426L71.4971 102.28C71.8698 101.018 72.7259 99.9564 73.8778 99.3269C75.0298 98.6974 76.3835 98.5517 77.6424 98.9219C78.9012 99.292 79.9624 100.148 80.5933 101.301C81.2242 102.455 81.3734 103.813 81.0081 105.076L79.7457 114C79.7097 114.254 79.6194 114.498 79.4809 114.715C79.3424 114.931 79.159 115.115 78.9433 115.254C78.7275 115.393 78.4844 115.484 78.2306 115.52C77.9767 115.557 77.718 115.537 77.4722 115.464L68.8314 112.896C68.5854 112.823 68.3581 112.698 68.1649 112.529C67.9716 112.36 67.8171 112.151 67.7118 111.916Z" fill="#2F2E41"/>
<path d="M99.5695 113.291C96.945 120.184 97.6156 127.415 100.848 134.907H77.9512C78.8714 129.576 78.4982 124.622 75.0891 120.552L99.5695 113.291Z" fill="#FFB6B6"/>
<path d="M72.7719 100.623L79.5483 95.6793L90.6368 92.5896L99.8772 94.4434L100.42 99.5655C101.081 105.796 100.794 112.091 99.5692 118.234L75.5441 123.796L73.08 119.47C73.08 119.47 67.5357 113.909 71.8479 107.729L72.7719 100.623Z" fill="#2F2E41"/>
<path d="M131.628 66.0443C131.779 66.6078 131.805 67.1978 131.705 67.7726C131.604 68.3474 131.379 68.8931 131.045 69.3712C130.712 69.8493 130.278 70.2482 129.774 70.5398C129.27 70.8315 128.708 71.0087 128.129 71.0591L105.822 99.7171L99.9998 93.2939L123.757 67.1438C123.738 66.1615 124.078 65.2059 124.713 64.4583C125.349 63.7107 126.236 63.2228 127.206 63.0873C128.176 62.9518 129.162 63.1779 129.977 63.7229C130.792 64.2679 131.379 65.0939 131.628 66.0443Z" fill="#FFB6B6"/>
<path d="M110.824 96.4645C110.842 96.721 110.804 96.9785 110.714 97.2193C110.624 97.4601 110.483 97.6785 110.301 97.8597L103.945 104.188C103.159 105.242 101.99 105.941 100.691 106.132C99.3933 106.322 98.0729 105.988 97.0198 105.203C95.9667 104.419 95.2667 103.247 95.0734 101.945C94.8801 100.644 95.2092 99.3182 95.9886 98.2596L100.255 90.3276C100.377 90.1012 100.545 89.9039 100.75 89.7489C100.955 89.594 101.19 89.4851 101.441 89.4297C101.691 89.3743 101.951 89.3737 102.201 89.4279C102.452 89.4821 102.688 89.5899 102.893 89.7438L110.112 95.1559C110.318 95.3098 110.487 95.5064 110.61 95.7322C110.733 95.958 110.806 96.2078 110.824 96.4645Z" fill="#2F2E41"/>
<path d="M72.8021 228.67H76.3107L77.98 215.095H72.8015L72.8021 228.67Z" fill="#FFB6B6"/>
<path d="M71.6139 226.934L77.1604 226.602V228.986L82.4337 232.639C82.6941 232.819 82.8903 233.079 82.9935 233.379C83.0967 233.679 83.1016 234.004 83.0074 234.307C82.9132 234.61 82.7249 234.875 82.4699 235.064C82.215 235.252 81.9067 235.353 81.5902 235.353H74.9869L73.8487 232.995L73.4043 235.353H70.9146L71.6139 226.934Z" fill="#2F2E41"/>
<path d="M97.6068 228.67H101.115L102.785 215.095H97.6062L97.6068 228.67Z" fill="#FFB6B6"/>
<path d="M96.4186 226.934L101.965 226.602V228.986L107.238 232.639C107.499 232.819 107.695 233.079 107.798 233.379C107.901 233.679 107.906 234.004 107.812 234.307C107.718 234.61 107.53 234.875 107.275 235.064C107.02 235.252 106.711 235.353 106.395 235.353H99.7916L98.6534 232.995L98.209 235.353H95.7192L96.4186 226.934Z" fill="#2F2E41"/>
<path d="M106.928 152.608V159.53L106.254 167.987C106.254 167.987 106.041 175.372 105.783 181.197C105.627 184.738 105.452 187.701 105.3 188.084C105.112 188.553 105.157 189.832 105.265 191.175C105.392 192.729 105.602 194.368 105.637 194.917C105.704 195.941 105.163 200.34 105.163 200.34C105.163 200.34 104.559 211.371 103.681 212.251C102.803 213.132 103.681 215.636 103.681 215.636C99.5662 218.679 94.3698 214.96 94.3698 214.96C95.5179 213.125 93.6956 200.605 93.6956 200.605C93.6956 200.605 93.4285 196.33 92.888 195.182C92.3473 194.033 92.2105 186.859 92.2105 186.859V176.233C92.2105 176.233 90.7922 174.058 90.5919 173.043C90.3916 172.029 90.5919 168.443 90.5919 168.443L89.1099 163.435L88.0955 167.359C88.0955 167.359 85.4688 178.323 84.9949 179.675C84.5212 181.028 85.2621 182.384 85.2621 182.384C85.2621 182.384 85.9395 184.47 85.2621 185.427C84.8412 186.026 84.5191 186.69 84.3081 187.392C84.3081 187.392 83.9614 191.386 83.3541 192.815C82.7466 194.244 82.2092 196.005 82.2092 196.005C82.2092 196.005 82.3522 198.704 81.7449 199.313C81.1375 199.922 80.9372 202.969 80.9372 202.969C80.9372 202.969 81.0707 206.417 80.2597 207.635C79.4488 208.854 79.4488 215.757 79.4488 215.757C78.0425 216.662 76.4219 217.177 74.7524 217.248C73.0829 217.319 71.4246 216.945 69.9468 216.162C69.9468 216.162 70.7482 215.409 70.1407 211.9C69.5334 208.392 70.5764 198.838 70.5764 198.838C70.5764 198.838 70.4429 196.413 71.117 195.329C71.7912 194.244 70.7767 192.148 71.0471 191.201C71.3174 190.253 72.1283 185.108 72.1283 185.108C72.1283 185.108 71.7912 172.453 71.7912 171.777C71.7114 170.573 71.3867 169.398 70.8371 168.325C70.2299 167.244 70.8371 159.393 70.8371 159.393C70.8371 159.393 72.2682 155.336 71.7912 154.455C71.3142 153.575 72.1092 152.018 72.1092 152.018C72.1092 152.018 71.3682 150.19 72.1092 149.852C72.8502 149.514 72.987 148.161 72.987 148.161L73.502 141.596C73.502 141.596 73.6961 138.617 74.313 138.483C74.93 138.349 74.6596 137.201 75.2671 136.387C75.563 135.837 75.7671 135.242 75.8712 134.626C75.9571 134.25 76.0366 133.857 76.1034 133.481C76.2942 132.46 76.4119 131.58 76.4119 131.58C80.3934 134.897 101.328 132.572 101.35 132.572C102.679 132.862 104.26 137.491 105.402 141.526C106.416 145.132 106.93 148.861 106.928 152.608Z" fill="#2F2E41"/>
<path d="M91.701 83.8789C93.2269 78.8437 90.3947 73.521 85.3751 71.9903C80.3555 70.4596 75.0493 73.3006 73.5234 78.3358C71.9975 83.3711 74.8297 88.6938 79.8493 90.2244C84.8689 91.7551 90.1751 88.9141 91.701 83.8789Z" fill="#FFB6B6"/>
<path d="M71.875 82.7681L75.5534 82.0004L76.2307 77.1036L77.5007 81.5939L79.2588 81.2269L79.6539 78.3705L80.3948 80.9898L93.4585 78.2631C93.1895 76.9662 92.6685 75.7351 91.9252 74.6402C91.1819 73.5453 90.2308 72.608 89.1264 71.8817C88.022 71.1555 86.7858 70.6546 85.4884 70.4076C84.1909 70.1606 82.8577 70.1724 81.5649 70.4422L79.6715 70.8374C77.0604 71.3824 74.7721 72.9456 73.31 75.183C71.8478 77.4205 71.3317 80.1489 71.875 82.7681Z" fill="#2F2E41"/>
<path d="M109.507 11.1168L109.483 11.1634C104.685 8.94629 99.2214 8.66541 94.2231 10.3789C89.2249 12.0924 85.0753 15.669 82.634 20.3676C80.1928 25.0663 79.6469 30.5269 81.1096 35.6183C82.5723 40.7096 85.9314 45.0414 90.491 47.7162L90.4668 47.7627L126.999 66.862L146.039 30.2161C147.292 27.8096 148.06 25.179 148.3 22.4745C148.539 19.77 148.244 17.0448 147.433 14.4546C146.621 11.8643 145.309 9.45994 143.571 7.37879C141.833 5.29764 139.702 3.58056 137.302 2.3257C134.902 1.07085 132.279 0.302821 129.582 0.0655299C126.886 -0.171761 124.17 0.126335 121.588 0.942779C119.007 1.75922 116.611 3.07801 114.538 4.82374C112.465 6.56947 110.755 8.70792 109.507 11.1168Z" fill="#6C63FF"/>
<path d="M142.055 221.402L142.048 221.414C140.836 220.854 139.455 220.783 138.192 221.216C136.928 221.649 135.879 222.553 135.262 223.741C134.645 224.928 134.507 226.308 134.877 227.595C135.247 228.882 136.096 229.977 137.248 230.653L137.242 230.665L146.476 235.492L151.288 226.23C151.605 225.621 151.799 224.957 151.86 224.273C151.92 223.589 151.846 222.901 151.641 222.246C151.436 221.591 151.104 220.983 150.664 220.457C150.225 219.931 149.687 219.497 149.08 219.18C148.473 218.863 147.81 218.669 147.129 218.609C146.447 218.549 145.761 218.624 145.108 218.831C144.456 219.037 143.85 219.37 143.326 219.812C142.802 220.253 142.37 220.793 142.055 221.402Z" fill="#FF6584"/>
<path d="M19.5681 103.961V104.014C14.2923 104.272 9.31766 106.556 5.67478 110.393C2.03191 114.23 -2.45269e-06 119.325 0 124.624C2.45269e-06 129.922 2.03193 135.018 5.6748 138.854C9.31768 142.691 14.2923 144.975 19.5681 145.233V145.286L60.7643 145.286L60.7642 103.961C60.7668 101.246 60.236 98.5574 59.202 96.0482C58.168 93.5391 56.6512 91.259 54.7382 89.3382C52.8252 87.4174 50.5536 85.8937 48.0533 84.8541C45.5529 83.8144 42.8728 83.2794 40.1662 83.2794C37.4595 83.2794 34.7794 83.8144 32.279 84.8541C29.7787 85.8937 27.5071 87.4174 25.5941 89.3382C23.6811 91.259 22.1643 93.5391 21.1303 96.0482C20.0963 98.5574 19.5655 101.246 19.5681 103.961V103.961Z" fill="#6C63FF"/>
<path d="M211.558 236H5.71263C5.61221 236 5.5159 235.96 5.44489 235.889C5.37388 235.818 5.33398 235.721 5.33398 235.62C5.33398 235.519 5.37388 235.423 5.44489 235.352C5.5159 235.28 5.61221 235.24 5.71263 235.24H211.558C211.658 235.24 211.755 235.28 211.826 235.352C211.897 235.423 211.937 235.519 211.937 235.62C211.937 235.721 211.897 235.818 211.826 235.889C211.755 235.96 211.658 236 211.558 236Z" fill="#CACACA"/>
<path d="M178.784 143.001C182.992 142.975 187.06 141.485 190.296 138.786C193.589 136.008 195.757 132.118 196.39 127.848C196.762 125.434 196.643 122.97 196.038 120.604C196.001 120.485 195.92 120.386 195.811 120.326C195.702 120.267 195.575 120.252 195.456 120.285C195.336 120.318 195.234 120.396 195.171 120.503C195.108 120.61 195.089 120.737 195.118 120.858C196.138 124.875 195.678 129.127 193.822 132.831C192.397 135.601 190.241 137.925 187.589 139.549C184.937 141.174 181.892 142.037 178.784 142.044C178.661 142.048 178.543 142.101 178.457 142.19C178.372 142.279 178.323 142.399 178.323 142.523C178.323 142.647 178.372 142.766 178.457 142.855C178.543 142.945 178.661 142.997 178.784 143.001V143.001Z" fill="#F0F0F0"/>
<path d="M105.118 18.7004C102.403 16.1156 98.1174 16.1224 94.9826 17.9217C91.4647 19.941 89.8698 24.1135 89.9504 28.0311C90.0411 32.4403 92.1903 36.4327 94.9652 39.7393C97.9228 43.175 101.365 46.1593 105.182 48.5976C108.988 51.0844 113.107 53.0532 117.43 54.4527C117.962 54.6248 118.497 54.7878 119.034 54.9419C119.155 54.9707 119.281 54.9515 119.388 54.8884C119.494 54.8252 119.572 54.723 119.605 54.6034C119.638 54.4837 119.623 54.3559 119.564 54.2469C119.505 54.1379 119.406 54.0563 119.288 54.0191C110.986 51.6394 103.438 47.1473 97.3774 40.9786C94.4921 38.0143 91.928 34.4516 91.1394 30.305C90.4429 26.643 91.2126 22.391 94.0421 19.7826C96.7927 17.2469 101.607 16.6759 104.443 19.3771C104.888 19.801 105.564 19.1254 105.118 18.7004V18.7004Z" fill="white"/>
<path d="M18.8627 114.028C15.1962 113.571 11.7528 116.158 10.3247 119.425C8.72324 123.089 9.80296 127.313 12.1259 130.41C14.6842 133.821 18.5593 135.809 22.61 136.864C26.9581 137.997 31.5739 138.303 36.0498 138.094C41.3409 137.848 46.5624 136.783 51.5293 134.937C52.0999 134.725 51.8531 133.799 51.2757 134.014C43.0073 137.094 33.8025 138.066 25.1077 136.44C21.2211 135.713 17.2628 134.326 14.3665 131.521C11.7423 128.98 9.88577 125.131 10.6755 121.413C11.4603 117.72 14.9613 114.498 18.8627 114.985C19.4705 115.061 19.465 114.103 18.8627 114.028Z" fill="white"/>
<path d="M79.8628 67.1513C80.7496 63.5952 79.0319 59.7808 76.3724 57.2669C73.7128 54.753 70.2423 53.3082 66.8074 52.0572C64.0681 51.0597 60.8597 50.1919 58.3805 51.7284C56.3884 52.963 55.5243 55.3612 54.3854 57.4136C52.2153 61.3247 48.7142 64.3215 44.5224 65.8559C40.3305 67.3903 35.7281 67.3598 31.5569 65.7699C33.0271 70.0514 38.0914 72.1456 42.5964 71.8547C47.1013 71.5639 51.2622 69.4828 55.4588 67.814C59.6553 66.1452 64.3235 64.8558 68.6367 66.1923C70.4571 66.7564 72.1128 67.7631 73.9152 68.3826C75.7177 69.0021 77.827 69.1866 79.4334 68.1588" fill="#2F2E41"/>
<path d="M142.96 197.395L139.889 191.972C139.823 191.868 139.719 191.792 139.599 191.763C139.478 191.733 139.351 191.752 139.245 191.815C139.138 191.877 139.059 191.979 139.026 192.099C138.992 192.218 139.007 192.346 139.065 192.456L142.136 197.878C142.202 197.983 142.306 198.058 142.427 198.087C142.547 198.117 142.674 198.098 142.781 198.035C142.888 197.973 142.966 197.871 142.999 197.751C143.033 197.632 143.019 197.504 142.96 197.395Z" fill="#F0F0F0"/>
</g>
<defs>
<clipPath id="clip0">
<rect width="218" height="236" fill="white"/>
</clipPath>
</defs>
</svg>
