<svg width="265" height="200" viewBox="0 0 265 200" fill="none" xmlns="http://www.w3.org/2000/svg">
<g clip-path="url(#clip0)">
<path opacity="0.4" d="M223.658 76.8922C227.165 76.8922 230.008 74.0375 230.008 70.5161C230.008 66.9947 227.165 64.14 223.658 64.14C220.151 64.14 217.308 66.9947 217.308 70.5161C217.308 74.0375 220.151 76.8922 223.658 76.8922Z" fill="#6C63FF"/>
<path opacity="0.4" d="M89.7791 41.8133C94.7783 41.8133 98.8309 37.7439 98.8309 32.724C98.8309 27.7041 94.7783 23.6347 89.7791 23.6347C84.78 23.6347 80.7274 27.7041 80.7274 32.724C80.7274 37.7439 84.78 41.8133 89.7791 41.8133Z" fill="#6C63FF"/>
<path opacity="0.4" d="M73.0266 43.4413C76.5335 43.4413 79.3764 40.5866 79.3764 37.0652C79.3764 33.5438 76.5335 30.6891 73.0266 30.6891C69.5198 30.6891 66.6769 33.5438 66.6769 37.0652C66.6769 40.5866 69.5198 43.4413 73.0266 43.4413Z" fill="#6C63FF"/>
<path d="M228.976 141.817C223.959 147.333 223.777 155.368 223.777 155.368C223.777 155.368 231.729 154.46 236.746 148.944C241.763 143.428 241.946 135.393 241.946 135.393C241.946 135.393 233.993 136.301 228.976 141.817Z" fill="#3F3D56"/>
<path d="M231.81 143.404C230.292 150.717 223.91 155.567 223.91 155.567C223.91 155.567 219.99 148.561 221.508 141.248C223.026 133.935 229.408 129.085 229.408 129.085C229.408 129.085 233.328 136.091 231.81 143.404Z" fill="#6C63FF"/>
<path d="M225.294 67.9434V155.122L196.354 179.128H48.3022V87.7376L91.5015 67.9434H225.294Z" fill="#3F3D56"/>
<path opacity="0.1" d="M225.294 67.9434V68.2928L214.905 75.2756L196.354 87.7377H48.3022L91.5015 67.9434H225.294Z" fill="black"/>
<path opacity="0.1" d="M225.294 67.9434V155.122L196.355 179.128L196.564 87.5271L214.905 75.2756L225.126 67.9434H225.294Z" fill="black"/>
<path d="M186.289 79.9462H96.1152L102.826 76.1558H189.225L186.289 79.9462Z" fill="#2F2E41"/>
<path d="M264.115 183.869C264.115 183.869 265.863 191.21 264.274 191.529C262.684 191.848 254.897 191.745 252.99 192.064C251.083 192.384 247.11 191.848 247.11 190.412C247.11 188.976 251.242 188.018 251.242 188.018C251.242 188.018 257.122 184.827 257.281 184.667C257.44 184.508 264.115 183.869 264.115 183.869Z" fill="#2F2E41"/>
<path d="M262.684 140.623C262.684 140.623 262.208 146.049 262.208 146.528C262.208 147.006 262.684 154.507 262.208 154.826C261.731 155.145 262.526 157.379 262.526 158.177C262.526 158.975 265.068 172.22 264.433 177.327C263.797 182.433 265.386 181.954 264.909 182.433C264.433 182.912 264.433 182.912 264.433 183.869C264.433 184.827 259.347 185.625 259.347 185.625L253.785 150.358L256.645 139.825L262.684 140.623Z" fill="#575A89"/>
<path opacity="0.1" d="M262.684 140.623C262.684 140.623 262.208 146.049 262.208 146.528C262.208 147.006 262.684 154.507 262.208 154.826C261.731 155.145 262.526 157.379 262.526 158.177C262.526 158.975 265.068 172.22 264.433 177.327C263.797 182.433 265.386 181.954 264.909 182.433C264.433 182.912 264.433 182.912 264.433 183.869C264.433 184.827 259.347 185.625 259.347 185.625L253.785 150.358L256.645 139.825L262.684 140.623Z" fill="black"/>
<path d="M261.89 186.103C261.89 186.103 263.479 191.848 261.89 192.167C260.301 192.487 252.514 191.802 250.606 192.121C248.699 192.44 244.726 192.487 244.726 191.05C244.726 189.614 248.858 188.657 248.858 188.657C248.858 188.657 254.738 185.465 254.897 185.305C255.056 185.146 261.89 186.103 261.89 186.103Z" fill="#2F2E41"/>
<path d="M264.115 134.24C264.115 134.24 266.022 138.868 263.797 141.261C261.572 143.655 259.029 148.443 259.029 148.762C259.029 149.081 263.479 180.837 262.843 182.912C262.208 184.986 262.367 186.263 262.525 186.582C262.684 186.901 260.936 188.657 259.029 188.657C257.122 188.657 254.262 187.22 253.944 185.944C253.626 184.667 254.421 173.656 254.262 171.582C254.103 169.507 253.308 166.475 252.99 165.837C252.672 165.198 250.924 164.56 250.606 162.645C250.289 160.73 247.746 136.314 248.541 135.517C249.335 134.719 264.115 134.24 264.115 134.24Z" fill="#575A89"/>
<path d="M252.037 97.5366C255.021 97.5366 257.44 95.1074 257.44 92.1108C257.44 89.1143 255.021 86.6851 252.037 86.6851C249.053 86.6851 246.633 89.1143 246.633 92.1108C246.633 95.1074 249.053 97.5366 252.037 97.5366Z" fill="#FFB9B9"/>
<path d="M255.374 94.8237C255.374 94.8237 254.262 100.728 255.056 101.366C255.851 102.005 249.017 102.962 249.017 102.962C249.017 102.962 248.223 95.1429 248.064 94.345C247.905 93.5471 255.374 94.8237 255.374 94.8237Z" fill="#FFB9B9"/>
<path d="M248.064 102.484C248.064 102.484 249.971 96.8982 257.758 98.494C257.758 98.494 259.188 98.9728 258.711 99.4515C258.235 99.9302 257.758 99.9302 258.394 100.409C259.029 100.888 259.824 100.409 259.347 100.888C258.87 101.366 263.638 104.239 263.32 109.665C263.002 115.09 264.433 122.75 263.32 124.027C262.208 125.303 264.115 130.889 263.797 132.006C263.479 133.123 265.704 134.559 264.75 135.038C263.797 135.517 246.633 138.389 246.157 135.038C245.68 131.687 245.998 134.08 245.521 133.282C245.044 132.485 244.885 131.048 245.203 129.293C245.521 127.538 246.316 123.229 245.998 121.633C245.68 120.037 245.998 106.633 246.951 105.037C247.905 103.441 248.064 102.484 248.064 102.484Z" fill="#6C63FF"/>
<path d="M251.401 141.421C251.401 141.421 253.785 150.517 250.765 150.517C247.746 150.517 247.905 141.102 247.905 141.102L251.401 141.421Z" fill="#FFB9B9"/>
<path d="M249.653 92.1108C249.653 92.5736 250.32 92.8672 251.355 92.9343H251.357C251.795 92.9593 252.235 92.9508 252.672 92.9087C253.334 92.8481 253.607 93.472 253.72 94.2955C253.904 95.6535 253.647 97.5573 253.944 97.8557C254.354 98.2674 257.343 97.8541 258.278 96.9206C258.423 96.7896 258.52 96.6129 258.552 96.4195C258.651 95.8494 258.931 95.3269 259.35 94.9306C259.902 94.3258 260.687 93.6556 261.572 92.5896C263.161 90.6746 261.572 90.515 261.095 89.0788C260.618 87.6426 259.824 87.1638 259.824 86.2064C259.824 85.2489 256.169 84.451 253.149 84.6106C250.13 84.7701 250.765 88.6001 250.765 88.6001C250.765 88.6001 250.586 89.0628 250.371 89.6597C250.081 90.4086 249.845 91.1777 249.666 91.9608C249.658 92.0105 249.654 92.0606 249.653 92.1108Z" fill="#2F2E41"/>
<path opacity="0.1" d="M250.289 104.877C250.289 104.877 255.692 104.558 256.169 112.537C256.645 120.516 256.486 128.016 256.486 128.176C256.486 128.335 254.262 143.496 252.196 143.496C250.13 143.496 248.541 143.176 248.064 142.379C247.587 141.581 249.335 130.091 249.335 130.091C249.335 130.091 250.13 117.963 248.858 114.133C247.587 110.303 247.428 105.356 250.289 104.877Z" fill="black"/>
<path d="M249.494 104.079C249.494 104.079 254.897 103.76 255.374 111.739C255.851 119.718 255.692 127.218 255.692 127.378C255.692 127.538 253.467 142.698 251.401 142.698C249.335 142.698 247.746 142.379 247.269 141.581C246.792 140.783 248.54 129.293 248.54 129.293C248.54 129.293 249.335 117.165 248.064 113.335C246.792 109.505 246.633 104.558 249.494 104.079Z" fill="#6C63FF"/>
<path d="M159.896 26.0746C159.896 26.0746 157.541 19.3751 155.84 21.4769C154.139 23.5787 158.456 27.1256 158.456 27.1256L159.896 26.0746Z" fill="#A0616A"/>
<path d="M171.015 19.5064L169.599 20.0336C169.599 20.0336 168.922 23.0533 169.184 23.5787C169.445 24.1042 169.576 23.7101 169.184 24.761C168.791 25.8119 167.614 28.5706 167.483 28.9647C167.352 29.3587 159.895 26.4687 159.895 25.0237C159.895 25.0237 158.326 26.8628 157.541 27.2569C157.541 27.2569 166.175 33.5624 167.352 34.3506C168.53 35.1388 169.184 34.7447 170.23 33.8251C171.277 32.9056 175.725 25.2865 175.725 25.2865L171.015 19.5064Z" fill="#575A89"/>
<path d="M167.221 66.1407C167.221 66.1407 167.352 67.5857 167.614 67.7171C167.876 67.8485 169.838 71.1326 167.614 71.7894C165.39 72.4462 164.082 72.1835 163.558 72.4462C163.035 72.7089 153.878 73.2344 153.747 71.7894C153.616 70.3444 158.195 70.0817 158.195 70.0817C158.195 70.0817 162.381 67.323 163.035 65.878C163.689 64.433 167.221 66.1407 167.221 66.1407Z" fill="#2F2E41"/>
<path d="M193.778 68.768C193.778 68.768 196.918 74.154 196.133 74.8108C195.348 75.4676 187.704 77.8612 186.583 77.9635C185.144 78.0949 184.097 76.9126 185.275 76.2558C186.452 75.599 188.938 72.8403 188.938 71.9208V69.5562L193.778 68.768Z" fill="#2F2E41"/>
<path d="M196.787 33.5624C196.787 33.5624 199.534 36.9779 195.217 42.4952L188.022 51.6907C188.022 51.6907 192.47 58.7843 192.601 62.4625C192.732 66.1407 193.647 65.3526 193.909 66.9289C194.171 68.5053 195.348 67.7171 194.432 68.8994C193.517 70.0817 190.115 71.1326 189.069 70.213C188.709 69.8824 188.428 69.4744 188.246 69.0195C188.065 68.5646 187.988 68.0745 188.022 67.5858C188.022 67.0603 186.191 64.0389 186.06 63.1194C185.929 62.1998 181.089 54.7121 181.089 54.7121C181.089 54.7121 179.519 50.2457 181.35 47.7497C183.182 45.2538 184.392 41.7139 184.392 41.7139C184.392 41.7139 178.995 48.2752 175.202 49.8516C175.202 49.8516 173.763 50.1143 174.024 50.7711C174.286 51.428 174.024 51.822 173.632 52.4789C173.239 53.1357 170.492 60.7548 169.576 62.7253C168.661 64.6957 169.053 65.878 168.006 66.5348C166.96 67.1917 162.25 66.6662 162.25 66.0094C162.25 65.3526 162.904 63.6448 163.297 62.7253C163.689 61.8057 166.829 51.1652 166.567 49.3261C166.306 47.487 166.698 44.9911 168.661 43.9402C170.623 42.8893 180.565 34.3506 181.089 34.3506C181.612 34.3506 196.787 33.5624 196.787 33.5624Z" fill="#2F2E41"/>
<path d="M170.492 12.9382C173.527 12.9382 175.987 10.468 175.987 7.42093C175.987 4.3738 173.527 1.90363 170.492 1.90363C167.458 1.90363 164.998 4.3738 164.998 7.42093C164.998 10.468 167.458 12.9382 170.492 12.9382Z" fill="#A0616A"/>
<path d="M174.94 7.94638C174.94 7.94638 176.641 10.9678 178.734 11.3619C180.827 11.756 173.239 17.7987 173.239 17.7987C173.239 17.7987 171.408 12.0187 169.838 11.756C168.268 11.4932 174.94 7.94638 174.94 7.94638Z" fill="#A0616A"/>
<path d="M169.576 20.2946C169.576 22.0024 174.678 26.8628 174.678 26.8628L179.519 30.9351C179.519 30.9351 179.65 32.3801 180.173 32.5115C180.696 32.6428 181.35 32.6428 180.827 33.431C180.304 34.2192 178.995 35.927 180.173 36.1897C180.528 36.2439 180.885 36.2781 181.244 36.2921C181.558 36.3105 181.927 36.3276 182.342 36.3434C183.31 36.3775 184.521 36.3999 185.833 36.3907C186.206 36.3894 186.586 36.385 186.972 36.3775C191.918 36.279 197.648 35.7076 197.18 33.8251C196.395 30.6724 196.918 29.6215 195.217 27.9137C193.517 26.206 190.769 20.2946 190.769 20.2946C190.769 20.2946 185.275 10.9677 180.696 10.9677L179.745 10.7168C179.303 10.5999 178.836 10.6256 178.409 10.7901C177.983 10.9547 177.618 11.2498 177.368 11.6338C176.45 13.038 175.001 15.1478 174.155 15.8282C172.847 16.8791 172.643 16.1251 172.643 16.1251C172.643 16.1251 169.576 18.5869 169.576 20.2946Z" fill="#575A89"/>
<path d="M181.219 40.262C181.219 40.262 177.426 46.1734 179.78 47.2243C182.135 48.2752 183.443 41.0502 183.443 41.0502L181.219 40.262Z" fill="#A0616A"/>
<path d="M174.084 6.79774C173.873 6.77102 173.806 6.50384 173.771 6.29341C173.581 5.16653 172.745 4.09795 171.621 3.91604C171.191 3.85866 170.755 3.894 170.34 4.0197C169.746 4.18344 169.188 4.45914 168.696 4.83213C168.456 5.05294 168.177 5.2284 167.875 5.35006C167.669 5.41085 166.793 5.80166 166.589 5.86779C166.139 6.01317 165.767 6.48582 165.304 6.39224C164.86 6.30271 164.692 5.76542 164.621 5.31723C164.459 4.29616 165.041 2.77263 165.619 1.91737C166.059 1.26834 166.802 0.894821 167.545 0.651819C168.415 0.386504 169.31 0.208054 170.215 0.119057C171.437 -0.0258781 172.703 -0.102774 173.874 0.276562C175.045 0.655898 176.112 1.58384 176.33 2.79992C176.376 3.05324 176.384 3.31271 176.44 3.56395C176.576 4.17685 176.98 4.69203 177.216 5.27373C177.386 5.70094 177.465 6.15918 177.447 6.6189C177.43 7.07861 177.317 7.52959 177.116 7.94278C176.79 8.60151 176.222 9.23453 176.345 9.95988L175.335 9.16055C175.189 9.07731 175.076 8.94636 175.015 8.78953C174.954 8.63271 174.948 8.4595 174.998 8.29883L175.145 7.02951C175.196 6.79955 175.173 6.55934 175.079 6.34324C174.631 5.55618 174.436 6.84229 174.084 6.79774Z" fill="#2F2E41"/>
<path opacity="0.1" d="M183.574 31.1979L182.342 36.3434C183.585 36.3881 185.229 36.4117 186.972 36.3775C187.411 35.0534 187.831 33.6728 188.153 32.3801C189.33 27.651 187.368 20.426 186.321 17.0105C185.275 13.595 182.658 12.6755 182.658 12.6755C181.586 13.0543 180.573 13.5851 179.65 14.2519C177.949 15.4341 183.574 31.1979 183.574 31.1979Z" fill="black"/>
<path opacity="0.1" d="M182.528 30.9351L181.244 36.2921C181.558 36.3105 181.927 36.3276 182.342 36.3434C183.31 36.3775 184.521 36.3999 185.833 36.3907C186.306 34.9838 186.762 33.4993 187.106 32.1174C188.284 27.3883 186.321 20.1632 185.275 16.7478C184.228 13.3323 181.939 17.0762 181.939 17.0762C181.939 17.0762 182.855 14.843 181.154 16.0253C179.453 17.2075 182.528 30.9351 182.528 30.9351Z" fill="black"/>
<path d="M182.135 12.4128C182.135 12.4128 184.752 13.3323 185.798 16.7478C186.845 20.1633 188.807 27.3883 187.63 32.1174C186.452 36.8465 183.967 42.7579 183.967 42.7579C183.967 42.7579 181.481 40.9188 180.565 41.3129L183.051 30.9351C183.051 30.9351 177.426 15.1714 179.126 13.9891C180.049 13.3224 181.062 12.7916 182.135 12.4128Z" fill="#575A89"/>
<path d="M184.085 78.3039L147.891 2.56786L87.3719 31.7304L109.629 78.3039H184.085Z" fill="#F2F2F2"/>
<path d="M135.643 32.296L103.499 47.7852L104.457 49.7887L136.601 34.2994L135.643 32.296Z" fill="#3F3D56"/>
<path d="M144.154 50.1042L112.01 65.5934L112.967 67.5968L145.111 52.1076L144.154 50.1042Z" fill="#3F3D56"/>
<path d="M150 21.8178L142.019 25.6634L145.849 33.6771L153.829 29.8315L150 21.8178Z" fill="#3F3D56"/>
<path d="M158.51 39.626L150.53 43.4716L154.359 51.4853L162.34 47.6397L158.51 39.626Z" fill="#3F3D56"/>
<path d="M150.55 16.267L147.263 25.6571L142.832 24.0934L142.226 25.8255L148.376 27.9958L152.274 16.8758L150.55 16.267Z" fill="#57B894"/>
<path d="M159.06 34.0751L155.773 43.4652L151.343 41.9018L150.737 43.6337L156.886 45.8039L160.785 34.6839L159.06 34.0751Z" fill="#57B894"/>
<path d="M3.49296 165.471L19.8452 161.964L16.3522 145.544L1.82493e-06 149.051L3.49296 165.471Z" fill="#F2F2F2"/>
<path d="M19.3904 141.157C19.3904 141.157 13.3842 145.465 15.3862 147.188C17.3883 148.911 21.3924 142.018 21.3924 142.018L19.3904 141.157Z" fill="#FFB9B9"/>
<path d="M47.1333 147.762C47.1333 147.762 45.9892 162.122 45.7032 164.132C45.4172 166.143 45.1312 184.236 44.5592 186.246C43.9872 188.257 43.4152 193.139 43.4152 193.139H39.9831C39.9831 193.139 40.2691 184.236 39.411 180.79C38.553 177.343 38.839 167.866 38.839 167.866C38.839 167.866 37.123 150.921 37.981 148.624C38.839 146.326 47.1333 147.762 47.1333 147.762Z" fill="#FFB9B9"/>
<path d="M42.5571 192.278C42.5571 192.278 43.9872 193.139 43.9872 193.714C43.9872 194.288 43.7012 195.724 43.9872 196.298C44.2732 196.873 46.2753 199.17 45.1312 199.745C43.9872 200.319 38.839 199.745 38.839 199.745C38.839 199.745 39.125 195.724 39.411 195.437C39.697 195.15 39.125 192.278 39.125 192.278H42.5571Z" fill="#2F2E41"/>
<path d="M25.2695 147.41C25.2695 147.41 24.9062 161.811 24.9805 163.841C25.0547 165.87 23.4478 183.894 23.8065 185.953C24.1653 188.013 24.2237 192.929 24.2237 192.929L27.6369 193.29C27.6369 193.29 28.2831 184.406 29.4967 181.069C30.7102 177.732 31.4165 168.277 31.4165 168.277C31.4165 168.277 34.8943 151.607 34.2812 149.232C33.6681 146.856 25.2695 147.41 25.2695 147.41Z" fill="#FFB9B9"/>
<path d="M25.1671 192.162C25.1671 192.162 23.6549 192.868 23.5949 193.439C23.5348 194.011 23.6691 195.469 23.3247 196.01C22.9802 196.551 20.749 198.625 21.8267 199.317C22.9044 200.008 28.0841 199.98 28.0841 199.98C28.0841 199.98 28.22 195.951 27.9656 195.635C27.7112 195.32 28.5803 192.524 28.5803 192.524L25.1671 192.162Z" fill="#2F2E41"/>
<path d="M43.1291 126.223C43.1291 126.223 45.4172 126.51 46.2752 131.392C47.1333 136.274 50.2794 148.624 47.7053 149.485C45.1312 150.347 37.409 152.07 37.1229 151.496C36.8369 150.921 36.2649 149.485 36.2649 149.485C36.2649 149.485 37.1229 152.07 35.9789 152.07C34.8349 152.07 23.6805 150.347 23.9665 149.485C24.2525 148.624 24.8245 142.305 24.8245 142.305C24.8245 142.305 26.5406 131.679 28.2567 129.956C28.7533 129.477 29.1389 128.895 29.386 128.249C29.6332 127.604 29.7358 126.912 29.6867 126.223H43.1291Z" fill="#2F2E41"/>
<path d="M47.4193 123.925C47.4193 123.925 43.7012 123.063 43.1291 124.212C42.5571 125.361 44.5592 127.084 45.4172 127.084C46.2752 127.084 47.7053 126.223 47.7053 126.223L47.4193 123.925Z" fill="#FFB9B9"/>
<path d="M39.697 99.5133C42.5403 99.5133 44.8452 97.1988 44.8452 94.3438C44.8452 91.4887 42.5403 89.1742 39.697 89.1742C36.8538 89.1742 34.5489 91.4887 34.5489 94.3438C34.5489 97.1988 36.8538 99.5133 39.697 99.5133Z" fill="#FFB9B9"/>
<path d="M38.839 98.0773C38.839 98.0773 37.981 102.098 38.553 102.098C39.125 102.098 34.2629 104.683 34.2629 104.683L30.5447 104.108L29.4007 102.385C29.4007 102.385 35.4069 98.3645 35.4069 96.0669C35.4069 93.7693 38.839 98.0773 38.839 98.0773Z" fill="#FFB9B9"/>
<path d="M36.2649 102.098C36.2649 102.098 37.1229 101.524 37.409 101.524H39.697C39.983 101.524 43.7012 102.385 43.7012 102.385L45.9892 115.309C45.9892 115.309 41.9851 121.915 44.8452 127.084C44.8452 127.084 43.9872 126.51 39.9831 126.797C35.9789 127.084 28.8287 127.946 28.5427 127.946C28.2567 127.946 28.2567 125.648 28.5427 125.074C28.8287 124.499 28.2567 124.787 28.2567 123.351C28.2567 121.915 27.3986 119.33 27.3986 119.33L23.3945 104.683C23.3945 104.683 28.5427 101.811 29.4007 102.098C30.2587 102.385 32.8328 103.247 33.4048 102.96C33.9769 102.672 36.2649 102.098 36.2649 102.098Z" fill="#6C63FF"/>
<path d="M42.8431 102.672L43.7012 102.385C43.7012 102.385 45.4172 102.098 47.4193 103.821C49.4214 105.544 56.8576 110.714 56.8576 110.714C56.8576 110.714 59.7177 113.011 58.8597 115.596C58.0017 118.181 56.5716 124.499 52.2815 124.212C52.2815 124.212 49.7074 127.658 48.2773 127.084C46.8473 126.51 45.7032 124.212 46.5613 123.925C47.4193 123.638 49.7074 120.766 49.7074 120.766L46.8473 115.309H45.9893L42.8432 113.586L42.8431 102.672Z" fill="#6C63FF"/>
<path d="M25.6826 104.396L23.3945 104.683C23.3945 104.683 21.3924 105.544 21.6785 109.278C21.9645 113.012 19.9624 129.956 20.8204 131.966C20.8204 131.966 17.9603 141.731 18.5324 142.018C19.1044 142.305 22.5365 144.029 22.2505 142.88C21.9645 141.731 25.3966 133.69 25.3966 133.69C25.3966 133.69 29.4007 129.382 27.6847 123.351V118.468L25.6826 104.396Z" fill="#6C63FF"/>
<path d="M43.9817 99.3417L40.3457 100.137L39.8785 98.3394L40.0582 100.2L34.1926 101.483L33.9347 100.491L34.0338 101.518L30.277 102.34L29.4733 94.5931C28.6471 91.4143 31.6626 88.0263 34.8283 87.1966L36.2326 86.8286C38.5577 86.2192 42.7841 86.7733 43.3909 89.108C42.3288 93.1785 40.5182 97.6411 43.9817 99.3417Z" fill="#2F2E41"/>
</g>
<defs>
<clipPath id="clip0">
<rect width="265" height="200" fill="white"/>
</clipPath>
</defs>
</svg>
